<svg xmlns="http://www.w3.org/2000/svg" version="1.1" xmlns:xlink="http://www.w3.org/1999/xlink" xmlns:svgjs="http://svgjs.dev/svgjs" viewBox="0 0 800 800"><defs><linearGradient x1="50%" y1="0%" x2="50%" y2="100%" id="nnneon-grad"><stop stop-color="hsl(157, 100%, 54%)" stop-opacity="1" offset="0%"></stop><stop stop-color="hsl(181, 87%, 61%)" stop-opacity="1" offset="100%"></stop></linearGradient><filter id="nnneon-filter" x="-100%" y="-100%" width="400%" height="400%" filterUnits="objectBoundingBox" primitiveUnits="userSpaceOnUse" color-interpolation-filters="sRGB">
	<feGaussianBlur stdDeviation="24 8" x="0%" y="0%" width="100%" height="100%" in="SourceGraphic" edgeMode="none" result="blur"></feGaussianBlur></filter><filter id="nnneon-filter2" x="-100%" y="-100%" width="400%" height="400%" filterUnits="objectBoundingBox" primitiveUnits="userSpaceOnUse" color-interpolation-filters="sRGB">
	<feGaussianBlur stdDeviation="48 49" x="0%" y="0%" width="100%" height="100%" in="SourceGraphic" edgeMode="none" result="blur"></feGaussianBlur></filter></defs><g stroke-width="16" stroke="url(#nnneon-grad)" fill="none" transform="rotate(95, 400, 400)"><path d="M381.6787770039378 135.75849389800385C393.0159497939011 129.21415304381043 406.9840502060989 129.21415304381043 418.32122299606226 135.76032602030347L619.6787922119843 252.0139822972169C631.0159650019475 258.5583231514104 638.0000152080464 270.65582669571023 638.0000152080464 283.74634052639675V516.2536530802236C638.0000152080464 529.3441669109102 631.0159650019475 541.44167045521 619.6787922119843 547.987843431703L418.32122299606226 664.2414997086165C406.9840502060989 670.7858405628099 393.0159497939011 670.7858405628099 381.6787770039378 664.239667586317L180.32120778801578 547.9860113094035C168.9840349980525 541.44167045521 161.99998479195358 529.3441669109102 161.99998479195358 516.2536530802236V283.74634052639675C161.99998479195358 270.65582669571023 168.9840349980525 258.5583231514104 180.32120778801578 252.01215017491734L381.6787770039378 135.75849389800385Z " filter="url(#nnneon-filter)"></path><path d="M441.6787770039378 135.75849389800385C453.0159497939011 129.21415304381043 466.9840502060989 129.21415304381043 478.32122299606226 135.76032602030347L679.6787922119843 252.0139822972169C691.0159650019475 258.5583231514104 698.0000152080464 270.65582669571023 698.0000152080464 283.74634052639675V516.2536530802236C698.0000152080464 529.3441669109102 691.0159650019475 541.44167045521 679.6787922119843 547.987843431703L478.32122299606226 664.2414997086165C466.9840502060989 670.7858405628099 453.0159497939011 670.7858405628099 441.6787770039378 664.239667586317L240.32120778801578 547.9860113094035C228.9840349980525 541.44167045521 221.99998479195358 529.3441669109102 221.99998479195358 516.2536530802236V283.74634052639675C221.99998479195358 270.65582669571023 228.9840349980525 258.5583231514104 240.32120778801578 252.01215017491734L441.6787770039378 135.75849389800385Z " filter="url(#nnneon-filter2)" opacity="0.45"></path><path d="M321.6787770039378 135.75849389800385C333.0159497939011 129.21415304381043 346.9840502060989 129.21415304381043 358.32122299606226 135.76032602030347L559.6787922119843 252.0139822972169C571.0159650019475 258.5583231514104 578.0000152080464 270.65582669571023 578.0000152080464 283.74634052639675V516.2536530802236C578.0000152080464 529.3441669109102 571.0159650019475 541.44167045521 559.6787922119843 547.987843431703L358.32122299606226 664.2414997086165C346.9840502060989 670.7858405628099 333.0159497939011 670.7858405628099 321.6787770039378 664.239667586317L120.32120778801578 547.9860113094035C108.9840349980525 541.44167045521 101.99998479195358 529.3441669109102 101.99998479195358 516.2536530802236V283.74634052639675C101.99998479195358 270.65582669571023 108.9840349980525 258.5583231514104 120.32120778801578 252.01215017491734L321.6787770039378 135.75849389800385Z " filter="url(#nnneon-filter2)" opacity="0.45"></path><path d="M381.6787770039378 135.75849389800385C393.0159497939011 129.21415304381043 406.9840502060989 129.21415304381043 418.32122299606226 135.76032602030347L619.6787922119843 252.0139822972169C631.0159650019475 258.5583231514104 638.0000152080464 270.65582669571023 638.0000152080464 283.74634052639675V516.2536530802236C638.0000152080464 529.3441669109102 631.0159650019475 541.44167045521 619.6787922119843 547.987843431703L418.32122299606226 664.2414997086165C406.9840502060989 670.7858405628099 393.0159497939011 670.7858405628099 381.6787770039378 664.239667586317L180.32120778801578 547.9860113094035C168.9840349980525 541.44167045521 161.99998479195358 529.3441669109102 161.99998479195358 516.2536530802236V283.74634052639675C161.99998479195358 270.65582669571023 168.9840349980525 258.5583231514104 180.32120778801578 252.01215017491734L381.6787770039378 135.75849389800385Z "></path></g></svg>