<!--?xml version="1.0" standalone="no"?-->              <svg id="sw-js-blob-svg" viewBox="0 0 100 100" xmlns="http://www.w3.org/2000/svg" version="1.1">                    <defs>                         <linearGradient id="sw-gradient" x1="0" x2="1" y1="1" y2="0">                            <stop id="stop1" stop-color="rgba(49.471, 236.999, 202.586, 1)" offset="0%"></stop>                            <stop id="stop2" stop-color="rgba(31, 188.269, 251, 1)" offset="100%"></stop>                        </linearGradient>                    </defs>                <path fill="url(#sw-gradient)" d="M20.1,-32.7C27.3,-30.7,35.1,-27.8,38.1,-22.1C41.1,-16.5,39.2,-8.3,38.1,-0.6C37.1,7,36.7,14,33.1,18.6C29.6,23.2,22.7,25.4,16.7,28.7C10.6,32.1,5.3,36.6,-0.9,38.2C-7.2,39.8,-14.4,38.6,-19.7,34.8C-24.9,31,-28.3,24.7,-31,18.4C-33.6,12.2,-35.5,6.1,-37.1,-0.9C-38.7,-8,-40.1,-16,-37.9,-23C-35.8,-30,-30.1,-36.2,-23.2,-38.3C-16.3,-40.4,-8.1,-38.4,-0.8,-37C6.5,-35.6,13,-34.7,20.1,-32.7Z" width="100%" height="100%" transform="translate(50 50)" stroke-width="0" style="transition: all 0.3s ease 0s;" stroke="url(#sw-gradient)"></path>              </svg>